<svg xmlns="http://www.w3.org/2000/svg" width="92" height="76" viewBox="0 0 92 76" fill="none">
<path d="M9.65895 76H82.341C89.7734 76 94.4065 68.5374 90.6903 62.5942L54.3493 4.45745C50.6331 -1.48582 41.3669 -1.48582 37.6507 4.45745L1.30968 62.5942C-2.40647 68.5374 2.22665 76 9.65895 76ZM46 44.7197C43.3456 44.7197 41.1738 42.7088 41.1738 40.2511V31.3138C41.1738 28.8561 43.3456 26.8452 46 26.8452C48.6544 26.8452 50.8262 28.8561 50.8262 31.3138V40.2511C50.8262 42.7088 48.6544 44.7197 46 44.7197ZM50.8262 62.5942H41.1738V53.6569H50.8262V62.5942Z" fill="#FDD400"/>
</svg>